<svg id="visual" viewBox="0 0 900 600" width="900" height="600" xmlns="http://www.w3.org/2000/svg" xmlns:xlink="http://www.w3.org/1999/xlink" version="1.1"><path d="M0 431L21.5 436C43 441 86 451 128.8 455C171.7 459 214.3 457 257.2 456.5C300 456 343 457 385.8 458.2C428.7 459.3 471.3 460.7 514.2 454.8C557 449 600 436 642.8 430.8C685.7 425.7 728.3 428.3 771.2 428.3C814 428.3 857 425.7 878.5 424.3L900 423L900 601L878.5 601C857 601 814 601 771.2 601C728.3 601 685.7 601 642.8 601C600 601 557 601 514.2 601C471.3 601 428.7 601 385.8 601C343 601 300 601 257.2 601C214.3 601 171.7 601 128.8 601C86 601 43 601 21.5 601L0 601Z" fill="#e5e5e5"></path><path d="M0 481L21.5 479C43 477 86 473 128.8 467.7C171.7 462.3 214.3 455.7 257.2 457.2C300 458.7 343 468.3 385.8 469C428.7 469.7 471.3 461.3 514.2 462.8C557 464.3 600 475.7 642.8 479.2C685.7 482.7 728.3 478.3 771.2 475.8C814 473.3 857 472.7 878.5 472.3L900 472L900 601L878.5 601C857 601 814 601 771.2 601C728.3 601 685.7 601 642.8 601C600 601 557 601 514.2 601C471.3 601 428.7 601 385.8 601C343 601 300 601 257.2 601C214.3 601 171.7 601 128.8 601C86 601 43 601 21.5 601L0 601Z" fill="#f3cbb2"></path><path d="M0 499L21.5 501.8C43 504.7 86 510.3 128.8 511.2C171.7 512 214.3 508 257.2 502.3C300 496.7 343 489.3 385.8 490.7C428.7 492 471.3 502 514.2 504.5C557 507 600 502 642.8 500.7C685.7 499.3 728.3 501.7 771.2 502.3C814 503 857 502 878.5 501.5L900 501L900 601L878.5 601C857 601 814 601 771.2 601C728.3 601 685.7 601 642.8 601C600 601 557 601 514.2 601C471.3 601 428.7 601 385.8 601C343 601 300 601 257.2 601C214.3 601 171.7 601 128.8 601C86 601 43 601 21.5 601L0 601Z" fill="#f9b27f"></path><path d="M0 518L21.5 520.3C43 522.7 86 527.3 128.8 527C171.7 526.7 214.3 521.3 257.2 522.5C300 523.7 343 531.3 385.8 531.8C428.7 532.3 471.3 525.7 514.2 524.2C557 522.7 600 526.3 642.8 526C685.7 525.7 728.3 521.3 771.2 518.8C814 516.3 857 515.7 878.5 515.3L900 515L900 601L878.5 601C857 601 814 601 771.2 601C728.3 601 685.7 601 642.8 601C600 601 557 601 514.2 601C471.3 601 428.7 601 385.8 601C343 601 300 601 257.2 601C214.3 601 171.7 601 128.8 601C86 601 43 601 21.5 601L0 601Z" fill="#fa994c"></path><path d="M0 558L21.5 557C43 556 86 554 128.8 553.2C171.7 552.3 214.3 552.7 257.2 553.5C300 554.3 343 555.7 385.8 558.3C428.7 561 471.3 565 514.2 564.7C557 564.3 600 559.7 642.8 556.5C685.7 553.3 728.3 551.7 771.2 553.7C814 555.7 857 561.3 878.5 564.2L900 567L900 601L878.5 601C857 601 814 601 771.2 601C728.3 601 685.7 601 642.8 601C600 601 557 601 514.2 601C471.3 601 428.7 601 385.8 601C343 601 300 601 257.2 601C214.3 601 171.7 601 128.8 601C86 601 43 601 21.5 601L0 601Z" fill="#f77f00"></path></svg>